<svg width="24" height="24" viewBox="0 0 24 24" fill="none" xmlns="http://www.w3.org/2000/svg">
<path d="M20.634 16.197C20.634 17.541 19.882 18.5489 18.666 18.8369C18.426 18.9009 18.154 18.9169 17.85 18.9169H15.802C14.49 18.9169 13.162 18.9169 11.85 18.9169C10.106 18.9169 8.36199 18.9169 6.61799 18.9169C5.40199 18.9169 4.554 18.405 4.074 17.381C3.93 17.061 3.85 16.6929 3.85 16.2449C3.85 14.1969 3.85 12.101 3.85 10.085V8.16494C3.85 8.16494 3.85 8.10093 3.85 8.05293C3.85 8.02093 3.85 7.98892 3.85 7.94092V7.84492L5.91399 9.5249C6.36199 9.8929 6.826 10.2609 7.274 10.6449C8.298 11.4929 9.37 12.357 10.426 13.205C11.514 14.085 12.906 14.085 13.994 13.205C15.37 12.085 16.778 10.9489 18.138 9.84492C18.762 9.34892 19.37 8.83692 19.994 8.34092C20.106 8.24492 20.218 8.16496 20.314 8.08496L20.506 7.94092H20.538C20.634 8.02092 20.618 8.11694 20.618 8.16494C20.618 8.16494 20.618 8.18097 20.618 8.19697V9.97295C20.618 12.0209 20.618 14.1329 20.618 16.2129M4.80999 6.06895C5.32199 5.66895 5.91399 5.49295 6.61799 5.47695C7.97799 5.47695 9.35399 5.47695 10.714 5.47695H12.25H13.834C15.194 5.47695 16.538 5.47695 17.898 5.47695C18.586 5.47695 19.194 5.68495 19.706 6.06895C19.786 6.13295 19.834 6.18094 19.834 6.26094C19.834 6.34094 19.77 6.38893 19.706 6.45293C18.25 7.63693 16.794 8.8369 15.338 10.0209C14.57 10.6449 13.802 11.269 13.034 11.893C12.778 12.101 12.522 12.197 12.25 12.197C11.978 12.197 11.706 12.085 11.45 11.877C10.746 11.301 10.042 10.7249 9.322 10.1329C7.834 8.91691 6.31399 7.66891 4.79399 6.43691C4.69799 6.35691 4.65 6.29292 4.65 6.24492C4.65 6.16492 4.71399 6.11693 4.79399 6.05293L4.80999 6.06895ZM18.202 3.87695C14.25 3.87695 10.25 3.87695 6.298 3.87695C4.106 3.87695 2.25 5.7329 2.25 7.9249C2.25 10.7569 2.25 13.6369 2.25 16.4689C2.25 18.6609 4.12199 20.5169 6.31399 20.5329C7.59399 20.5329 8.87398 20.5329 10.154 20.5329H18.122C18.122 20.5329 18.138 20.5329 18.154 20.5329C18.186 20.5329 18.218 20.5329 18.25 20.5329C18.426 20.5329 18.634 20.517 18.842 20.485C20.778 20.165 22.25 18.437 22.25 16.485C22.25 13.653 22.25 10.7889 22.25 7.94092C22.25 5.74892 20.394 3.89297 18.202 3.89297V3.87695Z" fill="#B2B2B2"/>
<path d="M17.6125 15.541C17.3885 15.541 17.1645 15.541 16.9565 15.541C16.8605 15.541 16.7645 15.541 16.6685 15.541C16.5565 15.541 16.4445 15.541 16.3325 15.541C16.2365 15.541 16.1405 15.541 16.0285 15.541C15.9005 15.541 15.7725 15.541 15.6445 15.541C15.1645 15.541 14.8125 15.925 14.8125 16.437C14.8125 16.933 15.1805 17.317 15.6605 17.317C16.3485 17.317 16.9885 17.317 17.6285 17.317C18.1085 17.317 18.4605 16.917 18.4605 16.421C18.4605 15.925 18.1085 15.541 17.6125 15.541Z" fill="#B2B2B2"/>
</svg>
