<svg width="24" height="24" viewBox="0 0 24 24" fill="none" xmlns="http://www.w3.org/2000/svg">
<path d="M7.4577 9.24506C7.31246 9.42258 7.26405 9.64848 7.34473 9.92281C7.53838 10.7136 7.87727 11.5043 8.37754 12.3273C9.70082 14.5381 11.5889 16.0712 13.9773 16.8942C14.8971 17.217 14.9455 17.1686 15.6394 16.4424C15.8815 16.1842 16.1074 15.9098 16.3172 15.6516C16.3818 15.5709 16.4463 15.4903 16.5109 15.4096C16.5916 15.3128 16.6722 15.2966 16.7852 15.345C18.0601 15.9421 19.3027 16.6683 20.5775 17.5882C20.6259 17.6204 20.6582 17.6527 20.6582 17.685C20.6582 17.7172 20.6259 17.7657 20.5775 17.8141C19.7061 18.7501 18.8347 19.5246 17.8987 20.1863C17.7857 20.267 17.6566 20.3477 17.5437 20.4284C17.4468 20.4929 17.3339 20.5736 17.2371 20.6382C17.1402 20.7027 17.0595 20.7188 16.9788 20.7188C16.3818 20.6382 15.7685 20.4768 15.1069 20.2347C13.59 19.6861 12.1053 18.8308 10.5884 17.6366C8.42595 15.9422 6.63468 13.925 5.3114 11.6819C4.47225 10.2779 3.95585 8.95459 3.71378 7.63131C3.68151 7.40538 3.71378 7.24396 3.82675 7.08259C4.60135 5.92069 5.52119 4.83947 6.55399 3.85508C6.63468 3.77439 6.69923 3.72605 6.71536 3.72605C6.74764 3.72605 6.79605 3.79058 6.8606 3.90354C7.65134 5.00089 8.37754 6.21118 9.0069 7.50218C9.10372 7.69583 9.08759 7.79267 8.94235 7.92177C8.71642 8.09929 8.4905 8.2929 8.28071 8.48655C8.18388 8.56724 8.08706 8.64796 7.99023 8.72865C7.78044 8.90616 7.61907 9.09984 7.48997 9.26122M21.9654 16.9588C21.8201 16.7167 21.5942 16.5393 21.4328 16.4263C20.6905 15.926 19.8997 15.3773 19.0767 14.9094C18.4474 14.5382 17.7373 14.1186 16.9466 13.8765C16.5109 13.7313 16.1236 13.8281 15.7524 14.1347C15.4458 14.3929 15.1876 14.7157 14.9294 15.0223C14.8326 15.1514 14.7357 15.2644 14.6228 15.3773C14.5098 15.5064 14.4453 15.5225 14.3 15.4741C11.718 14.4736 9.89447 12.6501 8.89394 10.0681C8.84552 9.939 8.86166 9.85832 8.97462 9.77763C9.31351 9.48716 9.6524 9.19662 9.97515 8.90614C10.2011 8.71249 10.4754 8.42203 10.5561 8.01859C10.6368 7.64743 10.4916 7.30855 10.3625 7.01807C9.70081 5.48501 8.76484 4.11329 7.87727 2.85456C7.61907 2.4834 7.31245 2.27367 6.97357 2.20912C6.63468 2.14457 6.26352 2.25745 5.89235 2.53179C5.34368 2.91909 4.89182 3.40329 4.50452 3.82287C3.58468 4.85567 2.90691 5.75939 2.39051 6.6631C2.21299 6.95357 2.16458 7.27628 2.21299 7.63131C2.42278 9.05141 2.92304 10.4554 3.74605 11.9562C5.06933 14.3445 6.89288 16.5231 9.15214 18.395C10.9434 19.8797 12.7024 20.9448 14.5421 21.6225C15.4296 21.9453 16.2365 22.1389 17.0273 22.2196C17.0595 22.2196 17.0918 22.2196 17.1241 22.2196C17.35 22.2196 17.5437 22.1228 17.7212 22.026C18.641 21.5096 19.5609 20.8157 20.6098 19.8636C21.1908 19.3311 21.6265 18.863 21.9654 18.3789C22.272 17.9432 22.272 17.4752 21.9654 16.9749V16.9588Z" fill="#B2B2B2"/>
<path d="M12.8184 4.2746C12.9636 4.2746 13.0927 4.29077 13.238 4.30691C13.5285 4.32305 13.8189 4.33918 14.1094 4.40373C16.4171 4.85558 18.1438 6.1304 19.2573 8.17986C19.7737 9.13198 20.048 10.2455 20.0964 11.5688C20.0964 11.9722 20.4031 12.2466 20.8226 12.2466C20.8226 12.2466 20.8226 12.2466 20.8388 12.2466C21.2261 12.2466 21.5165 11.94 21.5327 11.5527C21.5327 11.4881 21.5327 11.4397 21.5327 11.3752V11.2622C21.5327 10.8426 21.4843 10.4069 21.3874 9.87439C20.984 7.88947 20.0319 6.24336 18.515 4.95235C16.8851 3.56452 14.997 2.85449 12.8668 2.85449C12.4472 2.85449 12.1406 3.1289 12.1406 3.53234C12.1406 3.95192 12.3988 4.24235 12.8184 4.29076" fill="#B2B2B2"/>
<path d="M12.8272 7.59986C12.8272 7.59986 12.9241 7.59986 12.9725 7.59986C13.0209 7.59986 13.0693 7.59986 13.1339 7.59986C14.2635 7.68055 15.1995 8.1808 15.9418 9.10064C16.4743 9.76228 16.7325 10.553 16.7809 11.5374C16.7809 11.8925 17.0553 12.1668 17.3942 12.1991C17.4264 12.1991 17.4587 12.1991 17.4749 12.1991C17.8137 12.1991 18.0881 12.0055 18.1849 11.6827C18.2172 11.5859 18.2172 11.489 18.201 11.4083C18.201 11.3599 18.201 11.3277 18.201 11.2793C18.201 11.0049 18.1688 10.7467 18.1204 10.4885C17.6846 7.98723 15.4415 6.11523 12.9079 6.11523C12.8918 6.11523 12.8757 6.11523 12.8595 6.11523C12.4399 6.11523 12.1333 6.40568 12.1172 6.79298C12.1172 7.2287 12.3754 7.51923 12.8111 7.5515" fill="#B2B2B2"/>
</svg>
