<svg width="40" height="40" viewBox="0 0 40 40" fill="none" xmlns="http://www.w3.org/2000/svg">
<g clip-path="url(#clip0_301_295)">
<path d="M19.9997 38.8238C9.60535 38.8238 1.17618 30.3946 1.17618 20.0003C1.17618 9.60593 9.60535 1.17676 19.9997 1.17676C30.3941 1.17676 38.8232 9.60593 38.8232 20.0003C38.8232 30.3946 30.3941 38.8238 19.9997 38.8238Z" fill="#ED3237"/>
<path d="M32.5566 13.455C32.2585 12.3256 31.3762 11.4394 30.2546 11.1374C28.2232 10.5884 20.0821 10.5884 20.0821 10.5884C20.0821 10.5884 11.937 10.5884 9.90951 11.1374C8.78794 11.4394 7.90559 12.3256 7.60755 13.455C7.05853 15.4982 7.05853 19.7648 7.05853 19.7648C7.05853 19.7648 7.05853 24.0315 7.60363 26.0747C7.90167 27.2041 8.78402 28.0903 9.90559 28.3923C11.937 28.9413 20.0781 28.9413 20.0781 28.9413C20.0781 28.9413 28.2232 28.9413 30.2507 28.3923C31.3723 28.0903 32.2546 27.2041 32.5526 26.0747C33.0977 24.0315 33.0977 19.7648 33.0977 19.7648C33.0977 19.7648 33.0977 15.4982 32.5566 13.455ZM17.4154 23.6354V15.8943L24.2193 19.7648L17.4154 23.6354Z" fill="white"/>
</g>
<defs>
<clipPath id="clip0_301_295">
<rect width="37.6471" height="37.6471" fill="white" transform="translate(1.17647 1.17676)"/>
</clipPath>
</defs>
</svg>
