<svg width="38" height="38" viewBox="0 0 38 38" fill="none" xmlns="http://www.w3.org/2000/svg">
<g clip-path="url(#clip0_301_280)">
<path d="M19 38C8.5082 38 0 29.4918 0 19C0 8.5082 8.5082 0 19 0C29.4918 0 38 8.5082 38 19C38 29.4918 29.4918 38 19 38Z" fill="#ED3237"/>
<path d="M25.2002 8.90596H28.4766L21.2828 17.097L29.6875 28.2083H23.0919L17.928 21.456L12.0163 28.2083H8.73985L16.3611 19.4474L8.3125 8.90596H15.0719L19.7372 15.0742L25.2002 8.90596ZM24.0535 26.2852H25.8698L14.1174 10.7578H12.1658L24.0535 26.2852Z" fill="white"/>
</g>
<defs>
<clipPath id="clip0_301_280">
<rect width="37.6471" height="37.6471" fill="white" transform="scale(1.00937)"/>
</clipPath>
</defs>
</svg>
