<svg width="38" height="38" viewBox="0 0 38 38" fill="none" xmlns="http://www.w3.org/2000/svg">
<g clip-path="url(#clip0_301_289)">
<path d="M19 38C8.5082 38 0 29.4918 0 19C0 8.5082 8.5082 0 19 0C29.4918 0 38 8.5082 38 19C38 29.4918 29.4918 38 19 38Z" fill="#ED3237"/>
<g clip-path="url(#clip1_301_289)">
<path d="M19.0006 9.6442C21.8529 9.6442 22.191 9.65359 23.3182 9.70682C24.3608 9.75378 24.9275 9.92911 25.3032 10.0763C25.801 10.2704 26.1579 10.5021 26.5305 10.8747C26.9031 11.2472 27.1348 11.6042 27.3289 12.102C27.4761 12.4777 27.6483 13.0444 27.6983 14.087C27.7484 15.2142 27.761 15.5523 27.761 18.4046C27.761 21.2569 27.7516 21.595 27.6983 22.7222C27.6514 23.7648 27.4761 24.3315 27.3289 24.7072C27.1348 25.205 26.9031 25.5619 26.5305 25.9345C26.1579 26.3071 25.801 26.5388 25.3032 26.7329C24.9275 26.8801 24.3608 27.0523 23.3182 27.1024C22.191 27.1525 21.8529 27.165 19.0006 27.165C16.1483 27.165 15.8101 27.1556 14.683 27.1024C13.6404 27.0554 13.0737 26.8801 12.698 26.7329C12.2001 26.5388 11.8432 26.3071 11.4706 25.9345C11.0981 25.5619 10.8664 25.205 10.6722 24.7072C10.5251 24.3315 10.3529 23.7648 10.3028 22.7222C10.2527 21.595 10.2402 21.2569 10.2402 18.4046C10.2402 15.5523 10.2496 15.2142 10.3028 14.087C10.3498 13.0444 10.5251 12.4777 10.6722 12.102C10.8664 11.6042 11.0981 11.2472 11.4706 10.8747C11.8432 10.5021 12.2001 10.2704 12.698 10.0763C13.0737 9.92911 13.6404 9.75691 14.683 9.70682C15.8101 9.65359 16.1483 9.6442 19.0006 9.6442ZM19.0006 7.71866C16.0982 7.71866 15.735 7.73119 14.5953 7.78441C13.4588 7.83764 12.6823 8.0161 11.9998 8.28223C11.2984 8.55149 10.7004 8.91782 10.1087 9.5127C9.51379 10.1076 9.1506 10.7025 8.87508 11.4069C8.61208 12.0863 8.43049 12.8628 8.37726 14.0025C8.32403 15.1421 8.31151 15.5053 8.31151 18.4077C8.31151 21.3101 8.32403 21.6733 8.37726 22.813C8.43049 23.9495 8.60895 24.726 8.87508 25.4085C9.14747 26.1067 9.51379 26.7047 10.1087 27.2965C10.7036 27.8914 11.2984 28.2546 12.0029 28.5301C12.6823 28.7931 13.4588 28.9747 14.5985 29.0279C15.7381 29.0811 16.1013 29.0937 19.0037 29.0937C21.9061 29.0937 22.2693 29.0811 23.4089 29.0279C24.5455 28.9747 25.322 28.7962 26.0045 28.5301C26.7027 28.2577 27.3007 27.8914 27.8925 27.2965C28.4874 26.7016 28.8505 26.1067 29.1261 25.4023C29.3891 24.7229 29.5707 23.9464 29.6239 22.8067C29.6771 21.667 29.6896 21.3039 29.6896 18.4015C29.6896 15.4991 29.6771 15.1359 29.6239 13.9962C29.5707 12.8597 29.3922 12.0832 29.1261 11.4007C28.8537 10.7025 28.4874 10.1044 27.8925 9.5127C27.2976 8.91782 26.7027 8.55463 25.9982 8.2791C25.3188 8.0161 24.5424 7.83451 23.4027 7.78128C22.2662 7.73119 21.903 7.71866 19.0006 7.71866Z" fill="white"/>
<path d="M19.0021 12.9183C15.9713 12.9183 13.5135 15.3761 13.5135 18.4069C13.5135 21.4376 15.9713 23.8954 19.0021 23.8954C22.0329 23.8954 24.4907 21.4376 24.4907 18.4069C24.4907 15.3761 22.0329 12.9183 19.0021 12.9183ZM19.0021 21.9699C17.0359 21.9699 15.4391 20.3762 15.4391 18.4069C15.4391 16.4375 17.0359 14.8439 19.0021 14.8439C20.9683 14.8439 22.5651 16.4375 22.5651 18.4069C22.5651 20.3762 20.9683 21.9699 19.0021 21.9699Z" fill="white"/>
<path d="M24.7054 13.983C25.4144 13.983 25.9891 13.4082 25.9891 12.6993C25.9891 11.9903 25.4144 11.4156 24.7054 11.4156C23.9965 11.4156 23.4217 11.9903 23.4217 12.6993C23.4217 13.4082 23.9965 13.983 24.7054 13.983Z" fill="white"/>
</g>
</g>
<defs>
<clipPath id="clip0_301_289">
<rect width="37.6471" height="37.6471" fill="white" transform="scale(1.00937)"/>
</clipPath>
<clipPath id="clip1_301_289">
<rect width="21.1796" height="21.1765" fill="white" transform="translate(8.3125 7.71866) scale(1.00937)"/>
</clipPath>
</defs>
</svg>
