<svg width="38" height="38" viewBox="0 0 38 38" fill="none" xmlns="http://www.w3.org/2000/svg">
<path d="M19 38C8.5082 38 0 29.4918 0 19C0 8.5082 8.5082 0 19 0C29.4918 0 38 8.5082 38 19C38 29.4918 29.4918 38 19 38Z" fill="#ED3237"/>
<g clip-path="url(#clip0_301_284)">
<path d="M8.66471 15.9904H13.093V30.2415H8.66471V15.9904ZM10.8805 8.90645C12.2966 8.90645 13.4462 10.056 13.4462 11.4754C13.4462 12.8949 12.2966 14.0444 10.8805 14.0444C9.46107 14.0444 8.31152 12.8949 8.31152 11.4754C8.30818 10.0593 9.45774 8.90645 10.8805 8.90645Z" fill="white"/>
<path d="M15.8723 15.989H20.1207V17.9349H20.1806C20.7704 16.8154 22.2132 15.6325 24.3723 15.6325C28.8572 15.6325 29.6869 18.5847 29.6869 22.4198V30.2401H25.2587V23.3128C25.2587 21.6568 25.2287 19.5343 22.9562 19.5343C20.6505 19.5343 20.2973 21.3336 20.2973 23.1929V30.2435H15.8723V15.989Z" fill="white"/>
</g>
<defs>
<clipPath id="clip0_301_284">
<rect width="21.1765" height="21.1402" fill="white" transform="translate(8.3125 8.90645) scale(1.00937)"/>
</clipPath>
</defs>
</svg>
